# AST/ASF file generated using VICON BodyLanguage
# -----------------------------------------------
:version 1.10
:name VICON
:units
  mass 1.0
  length 0.45
  angle deg
:documentation
   .ast/.asf automatically generated from VICON data using
   VICON BodyBuilder and BodyLanguage model FoxedUp or BRILLIANT.MOD
:root
   order TX TY TZ RX RY RZ
   axis XYZ
   position 0 0 0  
   orientation 0 0 0 
:bonedata
  begin
     id 1 
     name lhipjoint
     direction 0.61886 -0.69539 0.365302 
     length 2.20474 
     axis 0 0 0  XYZ
  end
  begin
     id 2 
     name lfemur
     direction 0.34202 -0.939693 0  
     length 6.65149  
     axis 0 0 20  XYZ
    dof rx ry rz
    limits (-160.0 20.0)
           (-70.0 70.0)
           (-60.0 70.0)
  end
  begin
     id 3 
     name ltibia
     direction 0.34202 -0.939693 0   
     length 6.35814   
     axis 0 0 20   XYZ
    dof rx
    limits (-10.0 170.0)
  end
  begin
     id 4 
     name lfoot
     direction 0.101224 -0.278109 0.955201   
     length 2.18766   
     axis -90 7.62852e-016 20   XYZ
    dof rx rz
    limits (-45.0 90.0)
           (-70.0 20.0)
  end
  begin
     id 5 
     name ltoes
     direction 1.53524e-011 -4.21877e-011 1   
     length 1.09206   
     axis -90 7.62852e-016 20   XYZ
    dof rx
    limits (-90.0 20.0)
  end
  begin
     id 6 
     name rhipjoint
     direction -0.600207 -0.708087 0.371972   
     length 2.1652  
     axis 0 0 0  XYZ 
  end
  begin
     id 7 
     name rfemur
     direction -0.34202 -0.939693 0   
     length 6.54691   
     axis 0 0 -20   XYZ
    dof rx ry rz
    limits (-160.0 20.0)
           (-70.0 70.0)
           (-70.0 60.0)
  end
  begin
     id 8 
     name rtibia
     direction -0.34202 -0.939693 0   
     length 6.37474   
     axis 0 0 -20   XYZ
    dof rx
    limits (-10.0 170.0)
 end
 begin
     id 9 
     name rfoot
     direction -0.111266 -0.3057 0.945604   
     length 2.00903  
     axis -90 -7.62852e-016 -20   XYZ
    dof rx rz
    limits (-45.0 90.0)
           (-20.0 70.0)
  end
  begin
     id 10 
     name rtoes
     direction -1.5362e-011 -4.21913e-011 1   
     length 1.00221   
     axis -90 -7.62852e-016 -20   XYZ
    dof rx
    limits (-90.0 20.0)
  end
  begin
     id 11 
     name lowerback
     direction -0.0224561 0.999731 -0.00577314   
     length 2.10409   
     axis 0 0 0   XYZ
    dof rx ry rz
    limits (-20.0 45.0)
           (-30.0 30.0)
           (-30.0 30.0)
  end
  begin
     id 12 
     name upperback
     direction 0.0213126 0.999185 -0.0342817   
     length 2.09783   
     axis 0 0 0   XYZ
    dof rx ry rz
    limits (-20.0 45.0)
           (-30.0 30.0)
           (-30.0 30.0)
  end
  begin
     id 13 
     name thorax
     direction 0.0312356 0.999036 -0.0308451   
     length 2.09788   
     axis 0 0 0   XYZ
    dof rx ry rz
    limits (-20.0 45.0)
           (-30.0 30.0)
           (-30.0 30.0)
  end
  begin
     id 14 
     name lowerneck
     direction -0.0114419 0.996481 0.0830329   
     length 1.38575   
     axis 0 0 0   XYZ
    dof rx ry rz
    limits (-20.0 45.0)
           (-30.0 30.0)
           (-30.0 30.0)
  end
  begin
     id 15 
     name upperneck
     direction -0.0075675 0.996187 -0.0869092   
     length 1.39401   
     axis 0 0 0   XYZ
    dof rx ry rz
    limits (-20.0 45.0)
           (-30.0 30.0)
           (-30.0 30.0)
  end
  begin
     id 16
     name head
     direction -0.00222073 0.999264 -0.0382974  
     length 1.3964  
     axis 0 0 0   XYZ
    dof rx ry rz
    limits (-20.0 45.0)
           (-30.0 30.0)
           (-30.0 30.0)
  end
  begin
     id 17 
     name lclavicle
     direction 0.965962 0.222138 0.132556  
     length 2.81514  
     axis 0 0 0   XYZ
    dof ry rz
    limits (-20.0 10.0)
           (0.0 20.0)
  end
  begin
     id 18 
     name lhumerus
     direction 1 -4.48972e-011 7.03471e-018   
     length 4.47366   
     axis 180 -30 -90   XYZ
    dof rx ry rz
    limits (-60.0 90.0)
           (-90.0 90.0)
           (-90.0 90.0)
  end
  begin
     id 19
     name lradius
     direction 1 -4.48951e-011 -6.22192e-028   
     length 3.19948   
     axis 180 -30 -90   XYZ
    dof rx
    limits (-10.0 170.0)
  end
  begin
     id 20
     name lwrist
     direction 1 -4.48967e-011 -1.24264e-027   
     length 1.59974   
     axis 1.40095e-015 90 90   XYZ
    dof ry
    limits (-180.0 0.0)
 end
  begin
     id 21 
     name lhand
     direction 1 -4.4897e-011 -2.48528e-027   
     length 0.492667   
     axis 1.58582e-015 90 90   XYZ
    dof rx rz
    limits (-90.0 90.0)
           (-45.0 45.0)
  end
  begin
     id 22 
     name lfingers
     direction 1 -4.48996e-011 -4.97056e-027   
     length 0.397201   
     axis 3.17164e-015 90 90   XYZ
    dof rx
    limits (0.0 90.0)
  end
  begin
     id 23
     name lthumb
     direction 0.707107 -6.34981e-011 0.707107   
     length 0.570303   
     axis -90 45 2.85299e-015   XYZ
    dof rx rz
    limits (-45.0 45.0)
           (-45.0 45.0)
  end
  begin
     id 24 
     name rclavicle
     direction -0.961164 0.229034 0.153972   
     length 3.09348  
     axis 0 0 0   XYZ 
    dof ry rz
    limits (-10.0 20.0)
           (-20.0 0.0)
  end
  begin
     id 25 
     name rhumerus
     direction -1 -4.48971e-011 -9.06263e-028  
     length 4.3269   
     axis 180 30 90   XYZ
    dof rx ry rz
    limits (-90.0 60.0)
           (-90.0 90.0)
           (-90.0 90.0)
  end
  begin
     id 26 
     name rradius
     direction -1 -4.48953e-011 1.44659e-027   
     length 3.1896   
     axis 180 30 90   XYZ
    dof rx
    limits (-10.0 170.0)
  end
  begin
     id 27 
     name rwrist
     direction -1 -4.48988e-011 -1.24264e-027   
     length 1.5948   
     axis 1.40095e-015 -90 -90   XYZ
    dof ry
    limits (-180.0 0.0)
  end
  begin
     id 28
     name rhand
     direction -1 -4.49033e-011 -2.48528e-027   
     length 0.464496   
     axis 1.58582e-015 -90 -90   XYZ
    dof rx rz
    limits (-90.0 90.0)
           (-45.0 45.0)
  end
  begin
     id 29
     name rfingers
     direction -1 -4.48905e-011 -4.97056e-027   
     length 0.374489   
     axis 3.17164e-015 -90 -90   XYZ
    dof rx
    limits (0.0 90.0)
  end
  begin
     id 30
     name rthumb
     direction -0.707107 -6.34909e-011 0.707107   
     length 0.537693   
     axis -90 -45 -2.85299e-015   XYZ
    dof rx rz
    limits (-45.0 45.0)
           (-45.0 45.0)
  end
:hierarchy
  begin
    root lhipjoint rhipjoint lowerback
    lhipjoint lfemur
    lfemur ltibia
    ltibia lfoot
    lfoot ltoes
    rhipjoint rfemur
    rfemur rtibia
    rtibia rfoot
    rfoot rtoes
    lowerback upperback
    upperback thorax
    thorax lowerneck lclavicle rclavicle
    lowerneck upperneck
    upperneck head
    lclavicle lhumerus
    lhumerus lradius
    lradius lwrist
    lwrist lhand lthumb
    lhand lfingers
    rclavicle rhumerus
    rhumerus rradius
    rradius rwrist
    rwrist rhand rthumb
    rhand rfingers
  end

#!OML:ASF G:\acrobat\cartwheel_test 2\Patient 1\Session 2\acrobat4.ASF
:FULLY-SPECIFIED
:DEGREES
110
root 8.2569 14.6714 2.42349 -6.63628 -2.34954 1.95126
lowerback -0.343867 -0.0776571 -2.78008
upperback 3.39445 -0.094633 1.74199
thorax 3.69898 -0.163306 3.35524
lowerneck -14.321 -1.32978 -0.810425
upperneck 11.2417 -1.44818 -1.2678
head 5.73941 -0.838604 -0.400098
rclavicle 5.30196e-015 -7.95139e-016
rhumerus 47.8703 -2.50014 -65.3521
rradius 17.6692
rwrist 30.8826
rhand -19.3843 -21.181
rfingers 7.12502
rthumb 6.93422 -51.0474
lclavicle 5.30196e-015 -7.95139e-016
lhumerus 40.689 -11.2102 40.6317
lradius 28.7447
lwrist 8.38939
lhand -26.9147 1.51808
lfingers 7.12502
lthumb -0.337691 31.4976
rfemur -12.847 -2.13783 17.6109
rtibia 49.702
rfoot -21.8323 -17.8369
rtoes -14.9838
lfemur -13.1846 6.42558 -18.1126
ltibia 50.5085
lfoot -26.2504 9.4637
ltoes -14.0779
111
root 8.2644 14.669 2.4167 -6.57444 -2.34501 2.03561
lowerback -0.31039 -0.098247 -2.82724
upperback 3.36984 -0.121325 1.72518
thorax 3.6568 -0.176674 3.36331
lowerneck -14.305 -1.3177 -0.83463
upperneck 11.1703 -1.43621 -1.20891
head 5.71484 -0.828856 -0.375941
rclavicle -1.99126e-014 -6.36111e-015
rhumerus 47.3969 -1.47099 -63.8433
rradius 18.5584
rwrist 28.9478
rhand -18.6745 -21.6366
rfingers 7.12502
rthumb 7.6193 -51.4794
lclavicle -1.99126e-014 -6.36111e-015
lhumerus 40.6318 -11.2961 40.3965
lradius 28.8726
lwrist 8.7217
lhand -27.0004 1.53396
lfingers 7.12502
lthumb -0.420431 31.5133
rfemur -12.9937 -2.14491 17.4806
rtibia 49.7744
rfoot -21.8125 -17.7803
rtoes -15.0733
lfemur -13.3026 6.3804 -18.2673
ltibia 50.5247
lfoot -26.1753 9.58438
ltoes -14.3204
112
root 8.27265 14.671 2.41208 -6.53096 -2.35953 2.13982
lowerback -0.310384 -0.113375 -2.89812
upperback 3.38068 -0.13969 1.7175
thorax 3.67004 -0.188306 3.39476
lowerneck -14.3047 -1.31385 -0.927148
upperneck 11.0978 -1.42546 -1.11939
head 5.69329 -0.820337 -0.331313
rclavicle -1.48157e-015 -1.98785e-014
rhumerus 47.7986 -1.77754 -64.3829
rradius 17.9334
rwrist 29.454
rhand -18.7474 -21.4016
rfingers 7.12502
rthumb 7.54895 -51.2469
lclavicle -1.48157e-015 -1.98785e-014
lhumerus 40.5978 -11.2925 40.3153
lradius 28.945
lwrist 8.86707
lhand -27.1454 1.55883
lfingers 7.12502
lthumb -0.560507 31.5378
rfemur -13.0976 -2.16007 17.3259
rtibia 49.8176
rfoot -21.7494 -17.6887
rtoes -15.0793
lfemur -13.3675 6.34594 -18.4367
ltibia 50.5144
lfoot -26.098 9.69138
ltoes -14.5046
113
root 8.27738 14.6743 2.40806 -6.52201 -2.43435 2.14057
lowerback -0.238695 -0.100615 -2.89505
upperback 3.3591 -0.125237 1.74258
thorax 3.60596 -0.179928 3.41939
lowerneck -14.1382 -1.31187 -1.05317
upperneck 10.9759 -1.41786 -0.998651
head 5.629 -0.811844 -0.270207
rclavicle 2.79541e-016 -3.97569e-015
rhumerus 47.3919 -0.234364 -62.0421
rradius 18.4023
rwrist 26.5727
rhand -18.9726 -21.7302
rfingers 7.12502
rthumb 7.33155 -51.5832
lclavicle 2.79541e-016 -3.97569e-015
lhumerus 40.5481 -11.2927 40.3634
lradius 28.9531
lwrist 8.87936
lhand -27.1681 1.53576
lfingers 7.12502
lthumb -0.582462 31.5147
rfemur -13.1582 -2.07023 17.3271
rtibia 49.8447
rfoot -21.7827 -17.7034
rtoes -14.7143
lfemur -13.3727 6.3924 -18.4498
ltibia 50.4976
lfoot -26.096 9.71454
ltoes -14.5661
114
root 8.28077 14.6754 2.40396 -6.50776 -2.4937 2.08704
lowerback -0.135178 -0.0911349 -2.84449
upperback 3.31811 -0.116908 1.76869
thorax 3.5039 -0.172203 3.41791
lowerneck -14.0206 -1.30072 -1.08559
upperneck 10.8917 -1.40831 -0.931174
head 5.58364 -0.802806 -0.24153
rclavicle -2.31491e-014 -6.36111e-015
rhumerus 47.7424 -1.47225 -64.0407
rradius 17.9554
rwrist 28.8068
rhand -18.9507 -21.2423
rfingers 7.12502
rthumb 7.35277 -51.0945
lclavicle -2.31491e-014 -6.36111e-015
lhumerus 40.5001 -11.3423 40.3313
lradius 28.9606
lwrist 8.93322
lhand -26.9489 1.3967
lfingers 7.12502
lthumb -0.370695 31.3761
rfemur -13.2058 -1.97638 17.3927
rtibia 49.8627
rfoot -21.8442 -17.7326
rtoes -14.4112
lfemur -13.4026 6.41526 -18.4009
ltibia 50.5023
lfoot -26.142 9.65095
ltoes -14.3771
